<svg xmlns="http://www.w3.org/2000/svg" width="97" height="117" viewBox="0 0 97 117.1"><style type="text/css">  
	.st0{fill:#404040;}
</style><path class="st0" d="M22.8 25.7l25.7 25.7V32.2c9.7 0 18.9 3.8 25.7 10.7 6.9 6.9 10.7 16 10.7 25.7 0 9.7-3.8 18.9-10.7 25.7 -6.9 6.9-16 10.7-25.7 10.7 -9.7 0-18.9-3.8-25.7-10.7 -6.9-6.9-10.7-16-10.7-25.7 0-0.8 0-1.6 0.1-2.4L0.1 65.4c-0.9 13.5 3.8 27.2 14.1 37.5 18.9 18.9 49.7 18.9 68.6 0 18.9-18.9 18.9-49.7 0-68.6 -9.5-9.5-21.9-14.2-34.3-14.2l0-20.1L22.8 25.7z"/><path class="st0" d="M36.8 67.1L36.8 67.1l-4.9 2.3L31 65l6.7-3.1h4.9V87h-5.7V67.1z"/><path class="st0" d="M69.4 74.4c0 7.8-3.1 13.1-9.6 13.1 -6.5 0-9.4-5.8-9.4-12.9 0-7.3 3.1-13.1 9.6-13.1C66.7 61.5 69.4 67.5 69.4 74.4zM56.3 74.5c0 5.8 1.4 8.5 3.6 8.5 2.3 0 3.5-2.9 3.5-8.6 0-5.6-1.2-8.5-3.6-8.5C57.7 65.9 56.3 68.6 56.3 74.5z"/></svg>
