<svg xmlns="http://www.w3.org/2000/svg" width="52" height="52" viewBox="0 0 52 52"><style type="text/css">  
	.st0{fill:#D21621;}
</style><path class="st0" d="M32.4 46.5c0 3.3-2.7 5.5-5.5 5.5s-6-1.7-6-5.5c0-3.8 2.3-14.9 5.7-14.9C30 31.6 32.4 42.6 32.4 46.5z"/><circle class="st0" cx="26.3" cy="23.4" r="5.5"/><path class="st0" d="M49.7 23.4C49.7 10.5 39.2 0 26.3 0S2.9 10.4 2.9 23.4c0 9.9 6.2 18.4 14.8 21.7 0.1-0.9 0.2-2.5 0.5-4.3C11.6 37.8 7 31.2 7 23.4 7 12.8 15.6 4.2 26.3 4.2s19.2 8.6 19.2 19.2c0 7.4-4.2 13.9-10.3 17.1 0.3 1.8 0.5 3.4 0.6 4.3C43.9 41.2 49.7 33 49.7 23.4z"/><path class="st0" d="M41.3 23.4c0-8.3-6.7-15-15-15 -8.3 0-15 6.7-15 15 0 5.7 3.2 10.7 7.9 13.2 0.4-1.5 0.9-3 1.6-4.3 -3-1.8-5-5.1-5-8.9 0-5.8 4.7-10.5 10.5-10.5s10.5 4.7 10.5 10.5c0 3.5-1.7 6.6-4.3 8.4 0.7 1.3 1.3 2.8 1.7 4.3C38.4 33.6 41.3 28.8 41.3 23.4z"/></svg>